<?xml version="1.0" encoding="iso-8859-1"?>
<!-- Generator: Adobe Illustrator 19.0.0, SVG Export Plug-In . SVG Version: 6.00 Build 0)  -->
<svg version="1.1" id="Capa_1" xmlns="http://www.w3.org/2000/svg" xmlns:xlink="http://www.w3.org/1999/xlink" x="0px" y="0px"
	 viewBox="0 0 469.333 469.333" style="enable-background:new 0 0 469.333 469.333;" xml:space="preserve">
<path style="fill:#303C42;" d="M434.979,42.667H84.44l-3.482-11.938C75.688,12.635,58.844,0,40,0H10.667C4.771,0,0,4.771,0,10.667
	s4.771,10.667,10.667,10.667H40c9.427,0,17.844,6.313,20.479,15.365l66.396,227.635l-34.021,42.521
	c-4.854,6.073-7.521,13.688-7.521,21.458c0,18.948,15.406,34.354,34.354,34.354H416c5.896,0,10.667-4.771,10.667-10.667
	c0-5.896-4.771-10.667-10.667-10.667H119.688c-7.177,0-13.021-5.844-13.021-13.021c0-2.948,1.01-5.844,2.854-8.135l34.279-42.844
	h209.221c16.448,0,31.604-9.615,38.615-24.5l74.438-158.177c2.135-4.552,3.26-9.604,3.26-14.615v-3.021
	C469.333,58.073,453.927,42.667,434.979,42.667z"/>
<path style="fill:#E6E6E6;" d="M448,80.042c0,1.906-0.427,3.823-1.24,5.542L372.333,243.75c-3.51,7.438-11.083,12.25-19.313,12.25
	H146.667L90.663,64h344.316C442.156,64,448,69.844,448,77.021V80.042z"/>
<path style="opacity:0.1;enable-background:new    ;" d="M436.064,64.22c-0.004,0.009-0.001,0.021-0.007,0.03l-76.65,158.167
	c-3.615,7.438-11.414,12.25-19.888,12.25H140.444L146.667,256h206.354c8.229,0,15.802-4.813,19.313-12.25L446.76,85.583
	c0.813-1.719,1.24-3.635,1.24-5.542v-3.021C448,70.228,442.71,64.799,436.064,64.22z"/>
<g>
	<circle style="fill:#303C42;" cx="128" cy="426.667" r="42.667"/>
	<circle style="fill:#303C42;" cx="384" cy="426.667" r="42.667"/>
</g>
<linearGradient id="SVGID_1_" gradientUnits="userSpaceOnUse" x1="-69.1349" y1="619.2618" x2="-45.0257" y2="608.0202" gradientTransform="matrix(21.3333 0 0 -21.3333 1430.1112 13315.2227)">
	<stop  offset="0" style="stop-color:#FFFFFF;stop-opacity:0.2"/>
	<stop  offset="1" style="stop-color:#FFFFFF;stop-opacity:0"/>
</linearGradient>
<path style="fill:url(#SVGID_1_);" d="M384,384c-23.531,0-42.667,19.135-42.667,42.667s19.135,42.667,42.667,42.667
	s42.667-19.135,42.667-42.667S407.531,384,384,384z M128,384c-23.531,0-42.667,19.135-42.667,42.667s19.135,42.667,42.667,42.667
	s42.667-19.135,42.667-42.667S151.531,384,128,384z M434.979,42.667H84.44l-3.482-11.938C75.688,12.635,58.844,0,40,0H10.667
	C4.771,0,0,4.771,0,10.667s4.771,10.667,10.667,10.667H40c9.427,0,17.844,6.313,20.479,15.365l66.396,227.635l-34.021,42.521
	c-4.854,6.073-7.521,13.688-7.521,21.458c0,18.948,15.406,34.354,34.354,34.354H416c5.896,0,10.667-4.771,10.667-10.667
	c0-5.896-4.771-10.667-10.667-10.667H119.688c-7.177,0-13.021-5.844-13.021-13.021c0-2.948,1.01-5.844,2.854-8.135l34.279-42.844
	h209.221c16.448,0,31.604-9.615,38.615-24.5l74.438-158.177c2.135-4.552,3.26-9.604,3.26-14.615v-3.021
	C469.333,58.073,453.927,42.667,434.979,42.667z"/>
<g>
</g>
<g>
</g>
<g>
</g>
<g>
</g>
<g>
</g>
<g>
</g>
<g>
</g>
<g>
</g>
<g>
</g>
<g>
</g>
<g>
</g>
<g>
</g>
<g>
</g>
<g>
</g>
<g>
</g>
</svg>
